{
    "asset" : {
        "generator" : "Khronos glTF Blender I/O v1.3.48",
        "version" : "2.0"
    },
    "scene" : 0,
    "scenes" : [
        {
            "name" : "Scene",
            "nodes" : [
                0
            ]
        }
    ],
    "nodes" : [
        {
            "mesh" : 0,
            "name" : "pCube5",
            "rotation" : [
                0.7071068286895752,
                0,
                0,
                0.7071067094802856
            ],
            "scale" : [
                0.009999999776482582,
                0.009999999776482582,
                0.009999999776482582
            ],
            "translation" : [
                -0.0018870868952944875,
                0,
                0.003774173790588975
            ]
        }
    ],
    "materials" : [
        {
            "doubleSided" : true,
            "emissiveFactor" : [
                0,
                0,
                0
            ],
            "name" : "ChairFabric",
            "pbrMetallicRoughness" : {
                "baseColorTexture" : {
                    "index" : 0,
                    "texCoord" : 0
                },
                "metallicFactor" : 0,
                "roughnessFactor" : 0.5527864098548889
            }
        },
        {
            "doubleSided" : true,
            "emissiveFactor" : [
                0,
                0,
                0
            ],
            "name" : "ChairPlastic",
            "pbrMetallicRoughness" : {
                "baseColorFactor" : [
                    0.008999999612569809,
                    0.008999999612569809,
                    0.008999999612569809,
                    1
                ],
                "metallicFactor" : 0.5,
                "roughnessFactor" : 0.5527864098548889
            }
        },
        {
            "doubleSided" : true,
            "emissiveFactor" : [
                0,
                0,
                0
            ],
            "name" : "ChairMetal",
            "pbrMetallicRoughness" : {
                "baseColorFactor" : [
                    0.7132866978645325,
                    0.7132866978645325,
                    0.7132866978645325,
                    1
                ],
                "metallicFactor" : 0.7440000176429749,
                "roughnessFactor" : 0
            }
        },
        {
            "doubleSided" : true,
            "emissiveFactor" : [
                0,
                0,
                0
            ],
            "name" : "lambert1",
            "pbrMetallicRoughness" : {
                "baseColorFactor" : [
                    0.5,
                    0.5,
                    0.5,
                    1
                ],
                "metallicFactor" : 0,
                "roughnessFactor" : 0.5527864098548889
            }
        }
    ],
    "meshes" : [
        {
            "name" : "Mesh",
            "primitives" : [
                {
                    "attributes" : {
                        "POSITION" : 0,
                        "NORMAL" : 1,
                        "TEXCOORD_0" : 2
                    },
                    "indices" : 3,
                    "material" : 0
                },
                {
                    "attributes" : {
                        "POSITION" : 4,
                        "NORMAL" : 5,
                        "TEXCOORD_0" : 6
                    },
                    "indices" : 7,
                    "material" : 1
                },
                {
                    "attributes" : {
                        "POSITION" : 8,
                        "NORMAL" : 9,
                        "TEXCOORD_0" : 10
                    },
                    "indices" : 11,
                    "material" : 2
                },
                {
                    "attributes" : {
                        "POSITION" : 12,
                        "NORMAL" : 13,
                        "TEXCOORD_0" : 14
                    },
                    "indices" : 15,
                    "material" : 3
                }
            ]
        }
    ],
    "textures" : [
        {
            "source" : 0
        }
    ],
    "images" : [
        {
            "bufferView" : 4,
            "mimeType" : "image/jpeg",
            "name" : "TexturesCom_FabricPatterns0115_2_seamless_S"
        }
    ],
    "accessors" : [
        {
            "bufferView" : 0,
            "componentType" : 5126,
            "count" : 939,
            "max" : [
                1.3001238107681274,
                0.7986372709274292,
                1.0051720142364502
            ],
            "min" : [
                -0.7340372800827026,
                -1.7792246341705322,
                -2.2445945739746094
            ],
            "type" : "VEC3"
        },
        {
            "bufferView" : 1,
            "componentType" : 5126,
            "count" : 939,
            "type" : "VEC3"
        },
        {
            "bufferView" : 2,
            "componentType" : 5126,
            "count" : 939,
            "type" : "VEC2"
        },
        {
            "bufferView" : 3,
            "componentType" : 5123,
            "count" : 4992,
            "type" : "SCALAR"
        },
        {
            "bufferView" : 5,
            "componentType" : 5126,
            "count" : 2792,
            "max" : [
                1.7146778106689453,
                1.0085935592651367,
                2.430131673812866
            ],
            "min" : [
                -0.6942059993743896,
                -1.8406782150268555,
                0.4897844195365906
            ],
            "type" : "VEC3"
        },
        {
            "bufferView" : 6,
            "componentType" : 5126,
            "count" : 2792,
            "type" : "VEC3"
        },
        {
            "bufferView" : 7,
            "componentType" : 5126,
            "count" : 2792,
            "type" : "VEC2"
        },
        {
            "bufferView" : 8,
            "componentType" : 5123,
            "count" : 8328,
            "type" : "SCALAR"
        },
        {
            "bufferView" : 9,
            "componentType" : 5126,
            "count" : 2415,
            "max" : [
                1.6271785497665405,
                0.8406527042388916,
                2.11087703704834
            ],
            "min" : [
                -1.0634568929672241,
                -1.7305570840835571,
                0.8525262475013733
            ],
            "type" : "VEC3"
        },
        {
            "bufferView" : 10,
            "componentType" : 5126,
            "count" : 2415,
            "type" : "VEC3"
        },
        {
            "bufferView" : 11,
            "componentType" : 5126,
            "count" : 2415,
            "type" : "VEC2"
        },
        {
            "bufferView" : 12,
            "componentType" : 5123,
            "count" : 13980,
            "type" : "SCALAR"
        },
        {
            "bufferView" : 13,
            "componentType" : 5126,
            "count" : 474,
            "max" : [
                -0.9295487403869629,
                -0.6473454236984253,
                2.431522846221924
            ],
            "min" : [
                -1.2118003368377686,
                -0.8705697059631348,
                2.0557351112365723
            ],
            "type" : "VEC3"
        },
        {
            "bufferView" : 14,
            "componentType" : 5126,
            "count" : 474,
            "type" : "VEC3"
        },
        {
            "bufferView" : 15,
            "componentType" : 5126,
            "count" : 474,
            "type" : "VEC2"
        },
        {
            "bufferView" : 16,
            "componentType" : 5123,
            "count" : 1080,
            "type" : "SCALAR"
        }
    ],
    "bufferViews" : [
        {
            "buffer" : 0,
            "byteLength" : 11268,
            "byteOffset" : 0
        },
        {
            "buffer" : 0,
            "byteLength" : 11268,
            "byteOffset" : 11268
        },
        {
            "buffer" : 0,
            "byteLength" : 7512,
            "byteOffset" : 22536
        },
        {
            "buffer" : 0,
            "byteLength" : 9984,
            "byteOffset" : 30048
        },
        {
            "buffer" : 0,
            "byteLength" : 1504098,
            "byteOffset" : 40032
        },
        {
            "buffer" : 0,
            "byteLength" : 33504,
            "byteOffset" : 1544132
        },
        {
            "buffer" : 0,
            "byteLength" : 33504,
            "byteOffset" : 1577636
        },
        {
            "buffer" : 0,
            "byteLength" : 22336,
            "byteOffset" : 1611140
        },
        {
            "buffer" : 0,
            "byteLength" : 16656,
            "byteOffset" : 1633476
        },
        {
            "buffer" : 0,
            "byteLength" : 28980,
            "byteOffset" : 1650132
        },
        {
            "buffer" : 0,
            "byteLength" : 28980,
            "byteOffset" : 1679112
        },
        {
            "buffer" : 0,
            "byteLength" : 19320,
            "byteOffset" : 1708092
        },
        {
            "buffer" : 0,
            "byteLength" : 27960,
            "byteOffset" : 1727412
        },
        {
            "buffer" : 0,
            "byteLength" : 5688,
            "byteOffset" : 1755372
        },
        {
            "buffer" : 0,
            "byteLength" : 5688,
            "byteOffset" : 1761060
        },
        {
            "buffer" : 0,
            "byteLength" : 3792,
            "byteOffset" : 1766748
        },
        {
            "buffer" : 0,
            "byteLength" : 2160,
            "byteOffset" : 1770540
        }
    ],
    "buffers" : [
        {
            "byteLength" : 1772700,
            "uri" : "data:application/octet-stream;base64,"
        }
    ]
}
